<?xml version="1.0" encoding="utf-8"?>
<!-- Generator: Adobe Illustrator 25.0.0, SVG Export Plug-In . SVG Version: 6.00 Build 0)  -->
<svg version="1.0" id="Layer_1" xmlns="http://www.w3.org/2000/svg" xmlns:xlink="http://www.w3.org/1999/xlink" x="0px" y="0px"
	 viewBox="0 0 912.6 649.8" style="enable-background:new 0 0 912.6 649.8;" xml:space="preserve">
<style type="text/css">
	.st0{opacity:0.15;fill:#9DD2F2;}
	.st1{fill:#FFC73C;}
	.st2{fill:#EAB73A;}
	.st3{fill:#CCCCCC;}
	.st4{fill:url(#SVGID_1_);}
	.st5{fill:url(#SVGID_2_);}
	.st6{fill:#F9A17B;}
	.st7{fill:#A5D277;}
	.st8{fill:#5EB77D;}
	.st9{fill:#020E23;}
	.st10{fill:#FFFFFF;}
	.st11{fill:url(#Path_96_1_);}
	.st12{fill:url(#Path_97_1_);}
	.st13{fill:url(#Path_98_1_);}
	.st14{fill:url(#Path_99_1_);}
	.st15{fill:url(#SVGID_3_);}
	.st16{fill:url(#SVGID_4_);}
	.st17{fill:#727F87;}
	.st18{fill:#384449;}
	.st19{fill:url(#SVGID_5_);}
	.st20{fill:#53BD7F;}
	.st21{fill:#E27259;}
	.st22{fill:#C65846;}
	.st23{fill:#E8795D;}
	.st24{fill:#AAB9C1;}
	.st25{fill:url(#SVGID_6_);}
	.st26{fill:url(#SVGID_7_);}
	.st27{fill:url(#SVGID_8_);}
	.st28{fill:url(#SVGID_9_);}
	.st29{fill:#FE2D20;}
	.st30{fill:#41B782;}
	.st31{fill:#34495E;}
</style>
<path class="st0" d="M333,624.3c0,0-59.4-117.9-107.1-142.5s-116.7-75.19-112.5-136.59c4.2-61.41,76.8-106.41,92.4-129.81
	S238.2,43.2,330.6,18.6s105,58.2,188.4,66s175.5-3.6,219.45,61.8s13.95,118.2-11.25,195s37.02,108.34,46.35,174.07
	S751.2,624.3,751.2,624.3H333z"/>
<path class="st1" d="M763.55,565.21c0-13.84-11.26-25.1-25.1-25.1v-14.06h-59.1v70.88c0,7,5.67,12.67,12.68,12.67h33.75
	c7,0,12.68-5.67,12.68-12.67v-6.61C752.29,590.31,763.55,579.05,763.55,565.21z M738.45,583.31v-36.2c9.98,0,18.1,8.12,18.1,18.1
	S748.43,583.31,738.45,583.31z"/>
<path class="st2" d="M688.95,577.95L688.95,577.95c-1.57,0-2.85-1.28-2.85-2.85v-40.5c0-1.57,1.28-2.85,2.85-2.85l0,0
	c1.57,0,2.85,1.28,2.85,2.85v40.5C691.8,576.67,690.52,577.95,688.95,577.95z"/>
<path class="st3" d="M712.8,410.18c1.5,1.88,2.56,4.11,3.38,6.42c0.82,2.32,1.3,4.78,1.46,7.28c0.33,5-0.58,10.14-2.59,14.82
	c-1.96,4.68-4.65,8.78-7.19,12.73c-2.54,3.95-5.08,7.76-6.7,11.69c-0.9,1.95-1.39,3.92-1.75,5.89l-0.15,1.48
	c-0.02,0.25-0.07,0.49-0.06,0.74l0.03,0.74l0.04,1.49l0.22,1.56c0.56,4.17,2.29,8.28,4.19,12.52c1.91,4.23,4.08,8.64,5.39,13.42
	c1.28,4.77,1.57,9.88,0.37,14.52c-0.17-1.2-0.21-2.37-0.43-3.53c-0.25-1.15-0.36-2.3-0.75-3.4l-0.48-1.65l-0.6-1.61
	c-0.36-1.08-0.89-2.1-1.34-3.14c-1.99-4.1-4.57-7.92-7.04-12.06c-1.22-2.08-2.43-4.22-3.45-6.54c-0.53-1.14-0.97-2.36-1.4-3.56
	c-0.34-1.25-0.79-2.47-1-3.78l-0.37-1.94l-0.15-2.06l-0.06-1.03c-0.02-0.34,0.03-0.68,0.04-1.03l0.14-2.05
	c0.41-2.68,1.1-5.33,2.16-7.69c2.05-4.82,4.91-8.85,7.68-12.71c2.79-3.85,5.57-7.5,7.72-11.37c2.17-3.8,3.57-8.06,4.11-12.51
	C714.76,419.37,714.36,414.69,712.8,410.18z"/>
<g>
	<linearGradient id="SVGID_1_" gradientUnits="userSpaceOnUse" x1="222.4947" y1="104.2714" x2="173.188" y2="230.7538">
		<stop  offset="5.000000e-03" style="stop-color:#19B5FE"/>
		<stop  offset="1" style="stop-color:#58DBE3"/>
	</linearGradient>
	<path class="st4" d="M183.53,171.74v-6.87c4.1-0.38,6.11-2.27,6.11-5.36c0-4.41-1.2-11.22-1.2-16.26c0-6.68,4.41-10.4,10.71-10.4
		h4.35v7.44h-2.65c-2.65,0-3.91,1.2-3.91,3.72c0,3.97,1.07,10.84,1.07,15.82c0,4.29-2.02,7.5-6.62,8.38v0.13
		c4.6,0.95,6.62,4.1,6.62,8.45c0,4.92-1.07,11.85-1.07,15.76c0,2.58,1.26,3.72,3.91,3.72h2.65v7.5h-4.35
		c-6.3,0-10.71-3.72-10.71-10.4c0-5.04,1.2-11.91,1.2-16.26C189.64,174.01,187.63,172.05,183.53,171.74z"/>
	<linearGradient id="SVGID_2_" gradientUnits="userSpaceOnUse" x1="254.7512" y1="116.846" x2="205.4445" y2="243.3283">
		<stop  offset="5.000000e-03" style="stop-color:#19B5FE"/>
		<stop  offset="1" style="stop-color:#58DBE3"/>
	</linearGradient>
	<path class="st5" d="M242.58,177.1c0,4.35,1.2,11.22,1.2,16.26c0,6.68-4.41,10.4-10.71,10.4h-4.35v-7.5h2.65
		c2.65,0,3.91-1.13,3.91-3.72c0-3.91-1.07-10.84-1.07-15.76c0-4.35,2.02-7.5,6.62-8.45v-0.13c-4.6-0.88-6.62-4.1-6.62-8.38
		c0-4.98,1.07-11.85,1.07-15.82c0-2.52-1.26-3.72-3.91-3.72h-2.65v-7.44h4.35c6.3,0,10.71,3.72,10.71,10.4
		c0,5.04-1.2,11.85-1.2,16.26c0,3.09,2.02,4.98,6.11,5.36v6.87C244.6,172.05,242.58,174.01,242.58,177.1z"/>
</g>
<path class="st6" d="M297.9,479.7l-22.05,97.88c0,0,7.65,13.95,7.88,14.62s22.73,4.27,22.73,4.27l19.57-4.05l21.38-48.83l1.58-44.55
	L297.9,479.7z"/>
<path class="st7" d="M822.32,510.77c0,0,8.67-18.21,5.99-25.8s-7.41-5.09-7.68-13.05c-0.28-7.96,4.63-12.78,1.76-19.81
	c-2.87-7.04-11.48-7.04-12.96-14.17c-1.48-7.13,4.26-19.17,0-25.65c-4.26-6.48-11.48-5.28-14.17-14.17
	c-2.68-8.89-3.7-15.09-8.43-17.13c-4.72-2.04-9.63,1.85-15.09,0.46c-5.46-1.39-13.7-11.85-21.02-6.39
	c-7.31,5.46-1.02,12.5-3.33,17.5c-2.31,5-8.89,5.18-7.78,13.7c1.11,8.52,14.81,14.26,12.78,21.48c-2.04,7.22-4.63,7.75-3.52,14.39
	c1.11,6.63,12.78,9.78,14.07,16.08c1.3,6.3-0.93,12.87,2.5,16.3s16.02,7.41,16.39,11.11c0.37,3.7-1.94,8.06-0.37,12.22
	c1.57,4.17,14.63,10.93,14.63,10.93L822.32,510.77z"/>
<path class="st8" d="M779.67,421.41c-12.06-24.02-23.49-39.46-29.02-46.29c0.02-0.02,0.04-0.03,0.06-0.05
	c0.2-0.15,0.41-0.29,0.62-0.42c5.49,6.8,16.69,21.93,28.56,45.37c-2.05-15.55,0.86-33.48,1.99-39.48c0.29-0.04,0.57-0.07,0.86-0.1
	c-1.13,5.97-4.4,25.65-1.68,41.78l0.03,0.17c3.85,7.75,7.75,16.38,11.53,25.86c3.46-16.67,13.34-31.29,16.78-36.01
	c0.01,0.01,0.02,0.03,0.03,0.04c0.16,0.24,0.29,0.48,0.42,0.73c-3.68,5.09-13.56,19.95-16.68,36.64
	c3.86,9.81,7.59,20.52,11.01,32.15c2.08-13.06,11.98-28.24,15.61-33.47c0.2,0.19,0.4,0.39,0.59,0.6
	c-3.85,5.55-14.3,21.67-15.63,34.83c2.37,8.24,4.59,16.91,6.58,26.05l-0.4,0.09l-0.43-0.03c-1.98-9.07-4.18-17.68-6.53-25.87
	c-1.49-1.05-16.92-11.53-40.02-12.12c-0.08-0.27-0.16-0.55-0.22-0.84c21.18,0.46,36.05,9.21,39.88,11.72
	c-3.47-11.9-7.27-22.85-11.21-32.86c-2.17-0.86-21.47-8.21-43.47-7.56c-0.01-0.07-0.04-0.14-0.05-0.22c-0.04-0.21-0.06-0.4-0.09-0.6
	c20.62-0.64,38.92,5.73,43.19,7.34c-3.84-9.67-7.81-18.43-11.72-26.3c-2.2-0.98-20.94-9.22-39.31-12.5
	c-0.17-0.3-0.32-0.61-0.46-0.92C757.55,412.1,775.09,419.42,779.67,421.41z"/>
<path class="st9" d="M412.2,578.25c24.08,0.9,31.5,10.12,91.8-2.02c22.07-4.45,36.06-7.27,44.93-9.05l-0.83-60.92l48.6-43.42
	C559.8,360.9,479.78,355.5,479.78,355.5h-68.7C316.8,368.1,293.4,462.82,293.4,462.82l49.37,32.36
	C340.88,528.67,342,598.5,342,598.5l39.28-4.95C389.23,585.61,400.18,577.8,412.2,578.25z"/>
<g id="Group_141" transform="translate(0 0)">
	<path id="Path_92" class="st10" d="M490.11,443.23v2.44h-7.27v-10.2h7.14v2.44h-4.34v1.44h3.71v2.27h-3.71v1.61H490.11z"/>
	<path id="Path_93" class="st10" d="M497.71,440.66v5.01h-2.8v-10.2h2.18l4.09,5.19v-5.19h2.8v10.2h-2.23L497.71,440.66z"/>
	<path id="Path_94" class="st10" d="M486.45,459.11c-0.73,0.01-1.45-0.14-2.11-0.45c-0.61-0.28-1.16-0.68-1.62-1.17
		c-0.45-0.48-0.81-1.05-1.05-1.66c-0.25-0.61-0.37-1.27-0.37-1.92c0-0.67,0.13-1.33,0.39-1.94c0.25-0.61,0.62-1.17,1.08-1.64
		c0.47-0.48,1.03-0.87,1.65-1.13c0.66-0.29,1.37-0.43,2.09-0.42c0.73-0.01,1.45,0.14,2.11,0.45c0.61,0.28,1.16,0.68,1.62,1.18
		c0.45,0.49,0.8,1.05,1.04,1.67c0.24,0.61,0.37,1.26,0.37,1.91c0,0.66-0.13,1.32-0.39,1.93c-0.25,0.61-0.62,1.16-1.08,1.64
		c-0.47,0.48-1.03,0.87-1.64,1.14C487.89,458.97,487.17,459.12,486.45,459.11z M484.14,453.94c0,0.34,0.05,0.67,0.14,1
		c0.09,0.31,0.24,0.6,0.43,0.85c0.19,0.25,0.44,0.46,0.72,0.6c0.66,0.31,1.43,0.31,2.09-0.01c0.28-0.15,0.53-0.36,0.72-0.62
		c0.19-0.26,0.33-0.56,0.42-0.87c0.09-0.32,0.14-0.66,0.14-0.99c0-0.34-0.05-0.67-0.14-1c-0.09-0.31-0.24-0.6-0.44-0.85
		c-0.2-0.25-0.45-0.45-0.73-0.59c-0.32-0.15-0.67-0.23-1.03-0.22c-0.36-0.01-0.72,0.07-1.04,0.23c-0.28,0.15-0.53,0.36-0.72,0.61
		c-0.19,0.26-0.34,0.55-0.42,0.86C484.19,453.28,484.14,453.61,484.14,453.94L484.14,453.94z"/>
	<path id="Path_95" class="st10" d="M503.79,451.27h-2.93v7.76h-2.8v-7.76h-2.94v-2.44h8.67L503.79,451.27z"/>
	<g id="Group_139">
		
			<linearGradient id="Path_96_1_" gradientUnits="userSpaceOnUse" x1="-508.2156" y1="791.6105" x2="-506.6522" y2="793.187" gradientTransform="matrix(20.1281 0 0 -20.128 10694.2158 16385.9883)">
			<stop  offset="5.000000e-03" style="stop-color:#19B5FE"/>
			<stop  offset="1" style="stop-color:#58DBE3"/>
		</linearGradient>
		<path id="Path_96" class="st11" d="M491.65,431.63h-14.55v14.55h2.23v-12.31h12.31V431.63z"/>
		
			<linearGradient id="Path_97_1_" gradientUnits="userSpaceOnUse" x1="-508.7901" y1="791.0443" x2="-507.226" y2="792.6201" gradientTransform="matrix(20.127 0 0 -20.127 10716.6885 16385.1934)">
			<stop  offset="5.000000e-03" style="stop-color:#19B5FE"/>
			<stop  offset="1" style="stop-color:#58DBE3"/>
		</linearGradient>
		<path id="Path_97" class="st12" d="M506.08,431.63h-12.31v2.23h12.31v12.31h2.23v-14.55H506.08z"/>
	</g>
	<g id="Group_140" transform="translate(0 23.054)">
		
			<linearGradient id="Path_98_1_" gradientUnits="userSpaceOnUse" x1="-508.2242" y1="768.5728" x2="-506.6601" y2="770.1492" gradientTransform="matrix(20.128 0 0 -20.127 10717.2383 15921.1846)">
			<stop  offset="5.000000e-03" style="stop-color:#19B5FE"/>
			<stop  offset="1" style="stop-color:#58DBE3"/>
		</linearGradient>
		<path id="Path_98" class="st13" d="M506.08,425.24v12.31h-12.31v2.23h14.55v-14.55H506.08z"/>
		
			<linearGradient id="Path_99_1_" gradientUnits="userSpaceOnUse" x1="-507.6477" y1="769.14" x2="-506.0836" y2="770.7156" gradientTransform="matrix(20.127 0 0 -20.128 10693.668 15921.959)">
			<stop  offset="5.000000e-03" style="stop-color:#19B5FE"/>
			<stop  offset="1" style="stop-color:#58DBE3"/>
		</linearGradient>
		<path id="Path_99" class="st14" d="M491.65,437.55h-12.31v-12.31h-2.23v14.55h14.55V437.55z"/>
	</g>
</g>
<linearGradient id="SVGID_3_" gradientUnits="userSpaceOnUse" x1="547.4003" y1="482.6393" x2="606.15" y2="482.6393">
	<stop  offset="5.000000e-03" style="stop-color:#19B5FE"/>
	<stop  offset="1" style="stop-color:#58DBE3"/>
</linearGradient>
<polygon class="st15" points="548.1,506.25 606.15,475.35 598.53,459.03 547.4,491.16 "/>
<linearGradient id="SVGID_4_" gradientUnits="userSpaceOnUse" x1="282.3" y1="484.1995" x2="342.8435" y2="484.1995">
	<stop  offset="5.000000e-03" style="stop-color:#19B5FE"/>
	<stop  offset="1" style="stop-color:#58DBE3"/>
</linearGradient>
<polygon class="st16" points="342.26,508.5 282.3,475.8 288.75,459.9 342.84,493.18 "/>
<polygon class="st17" points="301.8,609.6 49.8,609.6 11.4,435 263.4,435 "/>
<polygon class="st18" points="263.4,435 268.2,435 306.67,609.6 301.8,609.6 "/>
<rect x="300.15" y="588.83" class="st18" width="93.15" height="20.77"/>
<ellipse transform="matrix(0.9495 -0.3137 0.3137 0.9495 -158.7447 71.5789)" class="st18" cx="143.01" cy="528.97" rx="16.35" ry="21.42"/>
<path class="st6" d="M368.33,609.6c0,0,19.8-32.25,43.88-31.35c24.07,0.9,31.5,10.12,91.8-2.03c60.3-12.15,60.3-12.15,60.3-12.15
	l-15.81-29.25l-0.39-28.58l47.62-25.35c0,0,23.7,60.67,28.2,72.15c4.5,11.48,16.2,50.55-2.7,56.55l-24.52,2.85
	c0,0-142.35,4.27-143.4,4.27c-1.05,0-84.97-4.72-84.97-4.72V609.6z"/>
<linearGradient id="SVGID_5_" gradientUnits="userSpaceOnUse" x1="11.4" y1="624.3" x2="895.2" y2="624.3">
	<stop  offset="5.000000e-03" style="stop-color:#19B5FE"/>
	<stop  offset="1" style="stop-color:#58DBE3"/>
</linearGradient>
<path class="st19" d="M880.5,639H26.1c-8.12,0-14.7-6.58-14.7-14.7l0,0c0-8.12,6.58-14.7,14.7-14.7h854.4
	c8.12,0,14.7,6.58,14.7,14.7l0,0C895.2,632.42,888.62,639,880.5,639z"/>
<path class="st20" d="M803.1,510.6c0,0-10.54-22.12-7.27-31.35s9-6.19,9.34-15.86c0.34-9.68-5.62-15.53-2.14-24.08
	c3.49-8.55,13.95-8.55,15.75-17.21c1.8-8.66-5.18-23.29,0-31.16c5.17-7.88,13.95-6.41,17.21-17.21c3.26-10.8,4.5-18.34,10.24-20.81
	c5.74-2.48,11.7,2.25,18.34,0.56s16.65-14.4,25.54-7.76c8.89,6.64,1.24,15.19,4.05,21.26c2.81,6.07,10.8,6.3,9.45,16.65
	c-1.35,10.35-18,17.33-15.52,26.1c2.47,8.77,5.62,9.42,4.27,17.48c-1.35,8.06-15.52,11.88-17.1,19.53
	c-1.58,7.65,1.12,15.64-3.04,19.8c-4.16,4.16-19.46,9-19.91,13.5s2.36,9.79,0.45,14.85s-17.78,13.27-17.78,13.27L803.1,510.6z"/>
<path class="st7" d="M854.92,402.02c14.65-29.19,28.55-47.95,35.26-56.25c-0.03-0.02-0.05-0.04-0.08-0.06
	c-0.25-0.19-0.5-0.35-0.75-0.51c-6.67,8.26-20.28,26.65-34.7,55.13c2.49-18.89-1.05-40.69-2.41-47.97
	c-0.35-0.05-0.69-0.09-1.04-0.12c1.38,7.25,5.35,31.16,2.04,50.77l-0.03,0.21c-4.68,9.42-9.41,19.9-14.01,31.43
	c-4.2-20.26-16.2-38.02-20.39-43.76c-0.01,0.02-0.02,0.03-0.04,0.05c-0.19,0.29-0.36,0.58-0.51,0.89
	c4.47,6.18,16.48,24.24,20.26,44.52c-4.69,11.92-9.23,24.94-13.37,39.06c-2.53-15.86-14.55-34.31-18.97-40.66
	c-0.24,0.24-0.48,0.47-0.71,0.73c4.67,6.74,17.37,26.33,18.99,42.32c-2.88,10.01-5.58,20.55-7.99,31.65l0.49,0.11l0.52-0.04
	c2.4-11.02,5.07-21.49,7.94-31.43c1.81-1.28,20.56-14.02,48.63-14.73c0.1-0.33,0.19-0.67,0.26-1.02
	c-25.74,0.55-43.8,11.19-48.46,14.24c4.22-14.46,8.84-27.77,13.62-39.92c2.63-1.04,26.09-9.98,52.82-9.18
	c0.02-0.09,0.04-0.18,0.06-0.26c0.04-0.26,0.07-0.49,0.1-0.73c-25.05-0.77-47.29,6.96-52.48,8.91c4.67-11.75,9.49-22.4,14.24-31.96
	c2.67-1.2,25.45-11.2,47.77-15.19c0.21-0.37,0.39-0.74,0.56-1.12C881.8,390.71,860.49,399.6,854.92,402.02z"/>
<rect x="763.55" y="506.25" class="st21" width="100.45" height="22.73"/>
<polygon class="st21" points="773.55,528.97 787.95,609.6 840.6,609.6 854.78,528.97 "/>
<path class="st6" d="M417.15,340.2c0,0-2.48,5.85-6.07,15.3c-3.6,9.45-3.15,33.52,29.25,33.52s41.62-17.1,40.5-29.02
	s-11.7-9.23-8.78-45.67L417.15,340.2z"/>
<polygon class="st22" points="775.61,540.48 852.75,540.48 854.78,528.97 773.55,528.97 "/>
<path class="st23" d="M472.05,314.32l-36.34,17.13l-8.66,12.12c0,0,23.97,4.48,44.56-13.87
	C471.45,325.52,471.56,320.48,472.05,314.32z"/>
<ellipse class="st6" cx="430.65" cy="258.45" rx="57.45" ry="86.55"/>
<path class="st23" d="M389.92,203.18c0,0,2.93,24.3,41.85,33.3s32.85,31.73,32.85,31.73l-3.38-35.33l-42.98-18.68l-24.52-15.07
	L389.92,203.18z"/>
<path d="M373.79,270.87c0,0-14.91-10.32-16.71-28.55c-1.8-18.22,1.8-31.27-4.5-45.45c-6.3-14.18-11.25-31.27,2.92-47.93
	s36.45-8.32,47.02,0c10.58,8.32,18.68,10.57,51.3-1.8s48.82,7.65,54.22,20.7c5.4,13.05,6.75,18,23.17,25.88
	c16.43,7.88,11.48,28.8,5.62,39.38c-5.85,10.57-21.3,32.92-25.26,44.5s-26.58,39.76-38.69,39.48l2.98-5.26l2.48-5.14l2.23-5.42
	l1.84-5.27l1.1-3.65l1.18-4.52c0,0-16.4,12.32-20,4.97c-3.6-7.35,2.7-31.2-5.7-44.85c-8.4-13.65-15.54-13.08-29.97-19.74
	s-32.82-18.27-35.88-24.66c0,0-11.14,6.41-18.92,38.53C374.23,242.08,372.04,258.78,373.79,270.87z"/>
<path class="st17" d="M444.37,150.56c0,0,71.48-1.01,60.59,103.08L494.1,252c0,0,1.7-26.85-2.4-43.05
	c-4.1-16.2-15.49-34.57-30.56-43.35c-15.08-8.78-34.35-10.37-34.35-10.37l3.64-0.68l4.39-1.07l4.33-1.24l4.14-1.32L444.37,150.56z"
	/>
<ellipse transform="matrix(0.2533 -0.9674 0.9674 0.2533 98.4012 684.4515)" class="st24" cx="492.57" cy="278.48" rx="28.01" ry="23.24"/>
<ellipse transform="matrix(0.2533 -0.9674 0.9674 0.2533 101.8809 687.1982)" class="st17" cx="496.09" cy="277.6" rx="21.74" ry="15.25"/>
<path class="st2" d="M727.65,526.05h10.8v70.88c0,7-5.67,12.67-12.68,12.67h-10.2c7,0,12.68-5.67,12.68-12.67v-70.88"/>
<path class="st29" d="M736.04,178.16c0-0.77-0.3-1.28-0.97-1.66c-5.45-3.12-10.89-6.25-16.33-9.4c-0.72-0.42-1.33-0.42-2.05,0
	c-5.47,3.17-10.94,6.31-16.42,9.46c-0.6,0.34-0.87,0.82-0.87,1.52c0.01,5.96,0,11.92,0.01,17.88c0,0.29-0.08,0.45-0.34,0.6
	c-3.77,2.16-7.53,4.33-11.29,6.49c-0.8,0.46-1.6,0.92-2.45,1.41c0-0.21,0-0.37,0-0.52c0-11.72-0.01-23.45,0.01-35.17
	c0-0.9-0.32-1.47-1.11-1.92c-3.9-2.22-7.78-4.47-11.68-6.7c-1.74-1-3.46-2.05-5.24-2.98c-0.2,0-0.39,0-0.59,0
	c-0.38,0.07-0.75,0.16-1.09,0.36c-1.78,1.05-3.59,2.08-5.38,3.11c-3.53,2.03-7.06,4.07-10.59,6.09c-0.53,0.3-0.91,0.66-0.96,1.29
	c0,19.49,0,38.98,0,58.48c0.17,0.51,0.54,0.84,1,1.1c11.1,6.38,22.2,12.77,33.29,19.17c0.63,0.36,1.19,0.37,1.82,0.01
	c11.14-6.42,22.28-12.83,33.42-19.24c0.61-0.35,0.89-0.83,0.89-1.55c-0.01-5.95,0-11.9-0.01-17.84c0-0.3,0.08-0.47,0.35-0.63
	c5.21-2.98,10.4-5.99,15.61-8.97c0.67-0.38,0.97-0.89,0.97-1.66C736.03,190.64,736.03,184.4,736.04,178.16z M702.22,180.67
	c0-0.09,0.01-0.19,0.02-0.29c0.18-0.01,0.29,0.1,0.41,0.17c4.46,2.56,8.92,5.13,13.38,7.7c0.2,0.11,0.3,0.23,0.3,0.48
	c-0.01,5.13-0.01,10.25-0.01,15.38c0,0.09,0.03,0.19-0.06,0.32c-1.62-0.93-3.23-1.86-4.83-2.78c-2.97-1.71-5.94-3.42-8.91-5.12
	c-0.2-0.11-0.3-0.22-0.3-0.48C702.22,190.92,702.22,185.79,702.22,180.67z M682.46,170.81c0.07,0.13,0.04,0.27,0.04,0.39
	c0,11.5,0,23,0.01,34.51c0,0.28-0.08,0.43-0.33,0.57c-4.49,2.57-8.96,5.15-13.44,7.73c-0.08,0.05-0.17,0.09-0.32,0.17
	c0-0.18,0-0.3,0-0.42c0-11.5,0-23-0.01-34.51c0-0.29,0.07-0.45,0.34-0.6c4.44-2.54,8.88-5.1,13.32-7.66
	C682.19,170.93,682.3,170.83,682.46,170.81z M653.78,167.82c4.31-2.48,8.62-4.96,12.93-7.45c0.19-0.11,0.34-0.16,0.56-0.03
	c4.52,2.61,9.04,5.21,13.56,7.82c0.06,0.04,0.12,0.08,0.18,0.11c-0.02,0.13-0.13,0.15-0.21,0.19c-4.5,2.59-9,5.18-13.5,7.78
	c-0.22,0.13-0.38,0.12-0.6-0.01c-4.48-2.59-8.96-5.16-13.44-7.74c-0.09-0.05-0.2-0.08-0.27-0.22
	C653.26,168.12,653.52,167.97,653.78,167.82z M682.47,243.15c-0.13,0-0.23-0.09-0.33-0.15c-10.1-5.82-20.21-11.63-30.31-17.44
	c-0.23-0.13-0.31-0.28-0.31-0.54c0.01-17.95,0.01-35.9,0.01-53.85c0-0.42,0-0.42,0.38-0.21c4.46,2.57,8.92,5.14,13.38,7.69
	c0.26,0.15,0.34,0.32,0.34,0.61c-0.01,12.3,0,24.59-0.02,36.89c0,0.93,0.33,1.5,1.14,1.96c5.14,2.88,10.26,5.79,15.39,8.68
	c0.28,0.16,0.38,0.33,0.38,0.65c-0.01,5.1-0.01,10.21-0.01,15.31C682.5,242.88,682.53,243.02,682.47,243.15z M684.25,224.4
	c-0.24,0.14-0.41,0.14-0.65,0c-4.46-2.54-8.93-5.06-13.4-7.59c-0.1-0.05-0.19-0.11-0.32-0.19c0.4-0.23,0.78-0.46,1.15-0.67
	c9.78-5.63,19.56-11.25,29.33-16.89c0.35-0.2,0.59-0.2,0.94,0c4.38,2.54,8.77,5.06,13.15,7.58c0.13,0.07,0.25,0.15,0.43,0.26
	c-0.88,0.5-1.71,0.98-2.55,1.46C702.97,213.7,693.61,219.05,684.25,224.4z M715.97,225.59c-10.07,5.79-20.13,11.58-30.19,17.37
	c-0.13,0.08-0.27,0.15-0.46,0.24c0-0.18,0-0.31,0-0.44c0-5.12,0-10.23-0.01-15.35c0-0.29,0.08-0.45,0.34-0.6
	c10.1-5.75,20.19-11.51,30.28-17.27c0.1-0.06,0.21-0.11,0.32-0.17c0.09,0.15,0.05,0.29,0.05,0.42c0,5.07,0,10.14,0.01,15.2
	C716.33,225.29,716.23,225.44,715.97,225.59z M718.02,185.82c-0.2,0.11-0.34,0.14-0.56,0.02c-4.48-2.59-8.96-5.16-13.44-7.74
	c-0.11-0.07-0.22-0.14-0.36-0.22c1.66-0.95,3.28-1.89,4.91-2.83c2.96-1.7,5.92-3.41,8.87-5.11c0.18-0.1,0.32-0.15,0.53-0.03
	c4.52,2.61,9.04,5.21,13.57,7.81c0.07,0.04,0.14,0.09,0.22,0.14c-0.17,0.18-0.39,0.26-0.59,0.38
	C726.78,180.76,722.4,183.29,718.02,185.82z M733.21,195.97c0,0.29-0.09,0.45-0.34,0.6c-4.45,2.55-8.9,5.11-13.35,7.67
	c-0.11,0.06-0.23,0.12-0.39,0.21c0-0.17,0-0.28,0-0.4c0-5.09,0-10.18,0-15.27c0-0.24,0.04-0.39,0.27-0.52
	c4.51-2.58,9.01-5.18,13.51-7.77c0.08-0.05,0.15-0.12,0.27-0.11c0.07,0.11,0.04,0.23,0.04,0.35
	C733.21,185.81,733.2,190.89,733.21,195.97z"/>
<g>
	<path class="st30" d="M133.2,314.87c4.4,0,8.79,0,13.19,0c0.11,0,0.27-0.06,0.22,0.17c0-0.01-0.01-0.02-0.01-0.02
		c0-0.01-0.01-0.02-0.02-0.01c-0.11,0.06-0.14,0.17-0.19,0.26c-3.51,6.08-7.02,12.17-10.54,18.25c-7.5,13-15,25.99-22.5,38.99
		c-0.04,0.08-0.14,0.14-0.09,0.25c-0.04,0-0.07,0-0.11,0c0.05-0.12-0.05-0.19-0.1-0.26c-1.64-2.85-3.28-5.7-4.93-8.55
		c-6.96-12.06-13.92-24.13-20.88-36.19c-1.27-2.21-2.55-4.41-3.82-6.62c-1.15-2-2.31-4-3.46-5.99c-0.03-0.05-0.03-0.16-0.15-0.11
		c-0.05-0.19,0.07-0.17,0.19-0.17c3.72,0,7.44,0,11.16,0c0.69,0,1.37,0,2.06,0c-0.02,0.15,0.09,0.26,0.16,0.38
		c6.54,11.33,13.08,22.67,19.62,34c0.05,0.09,0.09,0.25,0.19,0.26c0.13,0.01,0.16-0.16,0.22-0.26c2.76-4.79,5.53-9.57,8.29-14.36
		c3.78-6.55,7.56-13.11,11.34-19.66C133.12,315.11,133.21,315.01,133.2,314.87z"/>
	<path class="st31" d="M133.2,314.87c0.02,0.14-0.08,0.24-0.15,0.35c-3.78,6.55-7.56,13.11-11.34,19.66
		c-2.76,4.79-5.52,9.57-8.29,14.36c-0.06,0.1-0.08,0.27-0.22,0.26c-0.11-0.01-0.14-0.16-0.19-0.26c-6.54-11.33-13.08-22.66-19.62-34
		c-0.07-0.12-0.17-0.22-0.16-0.38c4.1,0,8.2,0,12.3,0c0.04,0.08,0.07,0.17,0.12,0.25c2.46,4.26,4.92,8.52,7.38,12.79
		c0.18,0.31,0.18,0.31,0.36,0c1.99-3.44,3.98-6.89,5.96-10.33c0.52-0.9,1.03-1.8,1.54-2.7C125,314.87,129.1,314.87,133.2,314.87z"/>
</g>
<path class="st1" d="M550.46,50.99L532.9,33.43L519.64,46.7l2.07,2.07l-26.83,11.28l-6.74,35.08l35.08-6.47l11.53-26.84l2.44,2.44
	L550.46,50.99z M532.9,37.48l13.51,13.51l-9.21,9.21L523.69,46.7L532.9,37.48z M521.2,86.12l-26.84,4.95l14.29-13.65
	c1.03,0.61,2.22,0.97,3.5,0.97c3.78,0,6.85-3.07,6.85-6.85s-3.07-6.85-6.85-6.85c-3.78,0-6.85,3.07-6.85,6.85
	c0,1.46,0.46,2.82,1.25,3.93L492.2,89.18l5.2-27.09l26.49-11.14l8.69,8.69L521.2,86.12z M508.17,71.54c0-2.2,1.79-3.99,3.99-3.99
	c2.2,0,3.99,1.79,3.99,3.99s-1.79,3.99-3.99,3.99C509.95,75.53,508.17,73.74,508.17,71.54z"/>
</svg>
