<?xml version="1.0" encoding="utf-8"?>
<!-- Generator: Adobe Illustrator 25.0.1, SVG Export Plug-In . SVG Version: 6.00 Build 0)  -->
<svg version="1.1" id="Capa_1" xmlns="http://www.w3.org/2000/svg" xmlns:xlink="http://www.w3.org/1999/xlink" x="0px" y="0px"
	 viewBox="0 0 420.488 420.488" enable-background="new 0 0 420.488 420.488" xml:space="preserve">
<g>
	<g>
		<g>
			<path fill="#FFFFFF" d="M175.193,156.313v32.897H77.276V51.817h96.175v32.896h-58.44v19.351h49.926v30.575h-49.926v21.673
				H175.193z"/>
			<path fill="#FFFFFF" d="M277.638,121.675v67.536h-37.735V51.817h29.414l55.151,69.857V51.817h37.735V189.21h-29.994
				L277.638,121.675z"/>
			<path fill="#FFFFFF" d="M125.945,370.327c-10.449,0-19.932-1.998-28.446-5.999c-8.515-3.998-15.805-9.255-21.867-15.772
				c-6.065-6.513-10.773-13.962-14.127-22.35c-3.356-8.384-5.031-17.029-5.031-25.931c0-9.028,1.742-17.736,5.225-26.123
				c3.484-8.384,8.351-15.772,14.61-22.158c6.256-6.386,13.673-11.48,22.253-15.287c8.578-3.804,17.964-5.709,28.156-5.709
				c10.449,0,19.931,2.001,28.446,5.999c8.515,4,15.801,9.288,21.866,15.868c6.063,6.579,10.741,14.063,14.03,22.448
				c3.289,8.387,4.934,16.965,4.934,25.736c0,9.032-1.741,17.706-5.225,26.028c-3.483,8.321-8.321,15.674-14.514,22.06
				c-6.191,6.386-13.579,11.514-22.157,15.385C145.52,368.392,136.134,370.327,125.945,370.327z M94.789,300.663
				c0,4.645,0.644,9.128,1.935,13.449c1.288,4.324,3.223,8.161,5.805,11.514c2.579,3.357,5.835,6.065,9.772,8.128
				c3.934,2.065,8.612,3.096,14.03,3.096c5.418,0,10.126-1.064,14.126-3.193c3.998-2.129,7.257-4.901,9.773-8.321
				c2.515-3.416,4.384-7.32,5.612-11.707c1.224-4.384,1.839-8.834,1.839-13.352c0-4.644-0.647-9.125-1.935-13.448
				c-1.291-4.321-3.259-8.128-5.902-11.417c-2.646-3.29-5.936-5.933-9.87-7.934c-3.937-1.998-8.548-3-13.835-3
				c-5.418,0-10.096,1.034-14.03,3.097c-3.937,2.065-7.193,4.807-9.772,8.224c-2.583,3.42-4.484,7.291-5.709,11.611
				C95.4,291.732,94.789,296.149,94.789,300.663z"/>
			<path fill="#FFFFFF" d="M359.493,264.67h-39.476v104.496h-37.735V264.67h-39.669v-32.896h116.88V264.67z"/>
			<g>
				<linearGradient id="SVGID_2_" gradientUnits="userSpaceOnUse" x1="-165.4728" y1="280.6182" x2="258.569" y2="-146.789">
					<stop  offset="0.0054" style="stop-color:#19B5FE"/>
					<stop  offset="1" style="stop-color:#58DBE3"/>
				</linearGradient>
				<polygon fill="url(#SVGID_2_)" points="195.995,0 30.113,0 0,0 0,30.113 0,195.995 30.113,195.995 30.113,30.113 
					195.995,30.113 				"/>
				<linearGradient id="SVGID_3_" gradientUnits="userSpaceOnUse" x1="-10.87" y1="434.0037" x2="413.1718" y2="6.5965">
					<stop  offset="0.0054" style="stop-color:#19B5FE"/>
					<stop  offset="1" style="stop-color:#58DBE3"/>
				</linearGradient>
				<polygon fill="url(#SVGID_3_)" points="390.375,0 224.493,0 224.493,30.113 390.375,30.113 390.375,195.995 420.488,195.995 
					420.488,30.113 420.488,0 				"/>
			</g>
			<g>
				<linearGradient id="SVGID_4_" gradientUnits="userSpaceOnUse" x1="142.842" y1="586.5053" x2="566.8838" y2="159.0981">
					<stop  offset="0.0054" style="stop-color:#19B5FE"/>
					<stop  offset="1" style="stop-color:#58DBE3"/>
				</linearGradient>
				<polygon fill="url(#SVGID_4_)" points="390.375,224.493 390.375,390.375 224.493,390.375 224.493,420.488 390.375,420.488 
					420.488,420.488 420.488,390.375 420.488,224.493 				"/>
				<linearGradient id="SVGID_6_" gradientUnits="userSpaceOnUse" x1="-11.7608" y1="433.1198" x2="412.281" y2="5.7127">
					<stop  offset="0.0054" style="stop-color:#19B5FE"/>
					<stop  offset="1" style="stop-color:#58DBE3"/>
				</linearGradient>
				<polygon fill="url(#SVGID_6_)" points="195.995,390.375 30.113,390.375 30.113,224.493 0,224.493 0,390.375 0,420.488 
					30.113,420.488 195.995,420.488 				"/>
			</g>
		</g>
		<circle fill="#19B5FE" cx="359.493" cy="357.06" r="15.144"/>
	</g>
</g>
</svg>
