<svg id="Group_290" data-name="Group 290" xmlns="http://www.w3.org/2000/svg" width="31.9" height="31.9" viewBox="0 0 31.9 31.9">
  <path id="Path_141" data-name="Path 141" d="M0,0H31.9V31.9H0Z" fill="#f7df1e"/>
  <path id="Path_142" data-name="Path 142" d="M657.334,1146.491l2.441-1.477c.471.835.9,1.542,1.927,1.542.985,0,1.606-.385,1.606-1.884v-10.193h3v10.235c0,3.1-1.82,4.518-4.475,4.518a4.653,4.653,0,0,1-4.5-2.741m10.6-.321,2.441-1.413a3.263,3.263,0,0,0,2.955,1.82c1.242,0,2.034-.621,2.034-1.478,0-1.028-.814-1.392-2.184-1.991l-.749-.321c-2.163-.921-3.6-2.077-3.6-4.518,0-2.248,1.713-3.962,4.39-3.962a4.428,4.428,0,0,1,4.261,2.4l-2.334,1.5a2.041,2.041,0,0,0-1.927-1.285,1.3,1.3,0,0,0-1.435,1.285c0,.9.557,1.264,1.841,1.82l.749.321c2.548,1.092,3.983,2.205,3.983,4.711,0,2.7-2.12,4.176-4.968,4.176a5.759,5.759,0,0,1-5.46-3.062" transform="translate(-648.946 -1119.833)"/>
</svg>
