<svg id="Group_288" data-name="Group 288" xmlns="http://www.w3.org/2000/svg" width="39.982" height="38.982" viewBox="0 0 39.982 38.982">
  <g id="Surfaces" transform="translate(0 0)">
    <g id="UI_UX_Surface" data-name="UI UX Surface">
      <g id="Outline_no_shadow" data-name="Outline no shadow">
        <path id="Path_146" data-name="Path 146" d="M425.693,1174.876h25.822a7.074,7.074,0,0,1,7.08,7.08v24.822a7.074,7.074,0,0,1-7.08,7.08H425.693a7.074,7.074,0,0,1-7.08-7.08v-24.822A7.074,7.074,0,0,1,425.693,1174.876Z" transform="translate(-418.613 -1174.876)" fill="#001d26"/>
      </g>
    </g>
  </g>
  <g id="Group_194" data-name="Group 194" transform="translate(8.394 9.125)">
    <path id="Path_147" data-name="Path 147" d="M523.586,1289.262c0-.152.026-.213.157-.213.994-.03,2.957-.061,4.946-.061,5.129,0,7.085,2.985,7.111,6.514,0,4.837-3.6,6.671-7.452,6.671h-1.622v6.911c0,.183-.052.243-.183.243h-2.774c-.131,0-.183-.061-.183-.213Zm3.14,9.96a13.145,13.145,0,0,0,1.7.061c2.067,0,4.056-.589,4.056-3.632,0-2.434-1.335-3.684-3.794-3.684-1.021,0-1.753.03-1.963.061Z" transform="translate(-523.586 -1288.988)" fill="#00c8ff"/>
    <path id="Path_148" data-name="Path 148" d="M704.206,1356.328c-1.26,0-1.594.788-1.594,1.366,0,.73.334,1.126,2.263,2.039,2.648,1.278,3.78,2.4,3.78,4.594a4.464,4.464,0,0,1-4.808,4.774,7.421,7.421,0,0,1-4.162-.921.315.315,0,0,1-.154-.3v-2.8c0-.152.1-.213.18-.152a6.771,6.771,0,0,0,4.165,1.289,1.429,1.429,0,0,0,1.594-1.458c0-.791-.286-1.248-2.137-2.13-2.648-1.278-3.751-2.376-3.751-4.6,0-2.464,1.848-4.5,4.882-4.5,1.568,0,2.674.042,3.394.529a.45.45,0,0,1,.154.4v2.495c0,.182-.1.274-.231.182A6.651,6.651,0,0,0,704.206,1356.328Z" transform="translate(-685.46 -1348.368)" fill="#00c8ff"/>
  </g>
</svg>
